<?xml version="1.0" standalone="no"?>
<!DOCTYPE svg PUBLIC "-//W3C//DTD SVG 20010904//EN"
 "http://www.w3.org/TR/2001/REC-SVG-20010904/DTD/svg10.dtd">
<svg version="1.0" xmlns="http://www.w3.org/2000/svg"
 width="512.000000pt" height="512.000000pt" viewBox="0 0 512.000000 512.000000"
 preserveAspectRatio="xMidYMid meet">
<metadata>
Created by potrace 1.11, written by Peter Selinger 2001-2013
</metadata>
<g transform="translate(0.000000,512.000000) scale(0.100000,-0.100000)"
fill="#000000" stroke="none">
<path d="M4 3601 c-2 -2 -4 -439 -4 -970 l0 -966 243 0 242 0 3 333 2 332 200
0 c202 0 346 13 366 34 7 6 53 139 104 296 50 157 118 368 152 469 38 117 57
192 54 207 -4 13 -36 53 -72 89 -98 98 -224 154 -384 171 -69 7 -899 12 -906
5z m786 -385 c127 -29 190 -118 185 -263 -4 -125 -56 -198 -161 -229 -52 -15
-282 -27 -311 -16 -10 3 -13 65 -13 261 l0 257 133 -1 c72 -1 148 -5 167 -9z"/>
<path d="M2279 3602 c-8 -1 -20 -22 -27 -45 -7 -23 -35 -109 -62 -192 -103
-318 -273 -844 -299 -922 -14 -46 -28 -83 -31 -82 -3 0 -68 126 -145 279
l-140 280 -51 -158 c-123 -380 -193 -599 -199 -622 -5 -20 20 -70 121 -245 70
-121 130 -222 135 -225 4 -3 119 -5 256 -5 l248 0 42 125 c103 306 313 956
313 968 0 6 4 12 9 12 8 0 81 -214 81 -239 0 -6 4 -19 10 -29 5 -9 39 -114 75
-232 159 -516 178 -576 185 -590 7 -13 47 -15 259 -15 241 0 250 0 260 20 6
11 38 90 71 175 33 85 65 164 70 175 5 11 106 263 225 560 118 297 220 549
225 560 5 11 41 101 80 200 39 99 77 193 85 210 7 16 10 32 5 35 -6 4 -343 5
-476 1 -31 -1 -33 -5 -84 -123 -28 -68 -57 -136 -65 -153 -7 -16 -32 -75 -54
-130 -23 -55 -46 -109 -51 -120 -5 -11 -70 -164 -145 -340 -161 -380 -161
-380 -168 -368 -4 6 -10 27 -16 49 -5 21 -48 167 -96 324 -48 157 -125 411
-171 564 -46 154 -88 284 -93 289 -9 9 -344 16 -382 9z"/>
<path d="M4326 3429 c-37 -96 -72 -183 -77 -194 -4 -11 -31 -77 -58 -147 l-51
-127 59 -168 c33 -92 78 -219 100 -282 22 -63 38 -117 36 -120 -3 -2 -98 -4
-211 -4 l-206 0 -20 -46 c-11 -25 -42 -104 -70 -176 -28 -71 -52 -135 -55
-142 -3 -9 79 -11 341 -10 l345 2 15 -40 c8 -22 36 -101 63 -175 l48 -135 263
0 c145 0 265 2 267 5 2 4 -151 422 -175 475 -5 11 -72 191 -150 400 -112 300
-259 692 -389 1039 -5 13 -27 -32 -75 -155z"/>
</g>
</svg>
